<svg width="21" height="21" viewBox="0 0 21 21" fill="none" xmlns="http://www.w3.org/2000/svg">
<path d="M13.5791 14.7708C13.812 14.3814 14.1193 14.0417 14.4835 13.7711C14.8477 13.5004 15.2616 13.3042 15.7017 13.1935C16.1417 13.0828 16.5992 13.0599 17.0481 13.126C17.497 13.1922 17.9285 13.3461 18.3179 13.579C18.7073 13.8119 19.047 14.1192 19.3176 14.4834C19.5883 14.8476 19.7845 15.2615 19.8952 15.7016C20.0059 16.1416 20.0288 16.5991 19.9626 17.048C19.8965 17.4969 19.7426 17.9284 19.5097 18.3178C19.0393 19.1042 18.2758 19.6716 17.3871 19.8951C16.4984 20.1186 15.5574 19.9799 14.7709 19.5096C13.9845 19.0392 13.4171 18.2757 13.1936 17.387C12.9701 16.4983 13.1088 15.5573 13.5791 14.7708ZM13.5791 14.7708C11.8554 13.5776 9.9606 12.6528 7.95945 12.0279L7.60536 11.9165M13.5791 6.22863C13.3462 5.83922 13.1923 5.40775 13.1262 4.95886C13.06 4.50997 13.0829 4.05245 13.1936 3.61242C13.3043 3.17238 13.5005 2.75846 13.7712 2.39427C14.0418 2.03008 14.3815 1.72277 14.7709 1.48987C15.1603 1.25698 15.5918 1.10306 16.0407 1.03691C16.4896 0.970766 16.9471 0.993681 17.3871 1.10435C17.8272 1.21502 18.2411 1.41128 18.6053 1.68192C18.9695 1.95256 19.2768 2.29228 19.5097 2.68169C19.98 3.46813 20.1187 4.40921 19.8952 5.2979C19.6717 6.18658 19.1043 6.95009 18.3179 7.42044C17.5314 7.89079 16.5903 8.02947 15.7017 7.80596C14.813 7.58245 14.0495 7.01507 13.5791 6.22863ZM13.5791 6.22863C11.8553 7.42156 9.96055 8.34609 7.95945 8.97066L7.60536 9.08207M7.60536 9.08207C7.79968 9.51389 7.90763 9.9932 7.90763 10.4984C7.90763 11.0037 7.79968 11.483 7.60536 11.9148M7.60536 9.08207C7.2813 8.36115 6.71981 7.77317 6.0146 7.41622C5.30938 7.05928 4.50309 6.95496 3.73026 7.12068C2.95742 7.28639 2.26478 7.71212 1.76791 8.32682C1.27105 8.94152 1 9.70802 1 10.4984C1 11.2888 1.27105 12.0553 1.76791 12.67C2.26478 13.2847 2.95742 13.7105 3.73026 13.8762C4.50309 14.0419 5.30938 13.9376 6.0146 13.5806C6.71981 13.2237 7.2813 12.6357 7.60536 11.9148" fill="#55B4EC"/>
<path d="M13.5791 14.7708C13.812 14.3814 14.1193 14.0417 14.4835 13.7711C14.8477 13.5004 15.2616 13.3042 15.7017 13.1935C16.1417 13.0828 16.5992 13.0599 17.0481 13.126C17.497 13.1922 17.9285 13.3461 18.3179 13.579C18.7073 13.8119 19.047 14.1192 19.3176 14.4834C19.5883 14.8476 19.7845 15.2615 19.8952 15.7016C20.0059 16.1416 20.0288 16.5991 19.9626 17.048C19.8965 17.4969 19.7426 17.9284 19.5097 18.3178C19.0393 19.1042 18.2758 19.6716 17.3871 19.8951C16.4984 20.1186 15.5574 19.9799 14.7709 19.5096C13.9845 19.0392 13.4171 18.2757 13.1936 17.387C12.9701 16.4983 13.1088 15.5573 13.5791 14.7708ZM13.5791 14.7708C11.8554 13.5776 9.9606 12.6528 7.95945 12.0279L7.60536 11.9165M13.5791 6.22863C13.3462 5.83922 13.1923 5.40775 13.1262 4.95886C13.06 4.50997 13.0829 4.05245 13.1936 3.61242C13.3043 3.17238 13.5005 2.75846 13.7712 2.39427C14.0418 2.03008 14.3815 1.72277 14.7709 1.48987C15.1603 1.25698 15.5918 1.10306 16.0407 1.03691C16.4896 0.970766 16.9471 0.993681 17.3871 1.10435C17.8272 1.21502 18.2411 1.41128 18.6053 1.68192C18.9695 1.95256 19.2768 2.29228 19.5097 2.68169C19.98 3.46813 20.1187 4.40921 19.8952 5.2979C19.6717 6.18658 19.1043 6.95009 18.3179 7.42044C17.5314 7.89079 16.5903 8.02947 15.7017 7.80596C14.813 7.58245 14.0495 7.01507 13.5791 6.22863ZM13.5791 6.22863C11.8553 7.42156 9.96055 8.34609 7.95945 8.97066L7.60536 9.08207M7.60536 9.08207C7.79968 9.51389 7.90763 9.9932 7.90763 10.4984C7.90763 11.0037 7.79968 11.483 7.60536 11.9148C7.2813 12.6357 6.71981 13.2237 6.0146 13.5806C5.30938 13.9376 4.50309 14.0419 3.73026 13.8762C2.95742 13.7105 2.26478 13.2847 1.76791 12.67C1.27105 12.0553 1 11.2888 1 10.4984C1 9.70802 1.27105 8.94152 1.76791 8.32682C2.26478 7.71212 2.95742 7.28639 3.73026 7.12068C4.50309 6.95496 5.30938 7.05928 6.0146 7.41622C6.71981 7.77317 7.2813 8.36115 7.60536 9.08207Z" stroke="white" stroke-width="1.5"/>
</svg>
